# xmcd
#
# Track frame offsets: 
#        150
#        19072
#        40742
#        61695
#        83325
#        103710
#        117125
#        132107
#        145205
#        168100
#        183107
#        203397
#
# Disc length: 2994 seconds
#
# Revision: 1
# Processed by: cddbd v1.5.2PL0 Copyright (c) Steve Scherf et al.
# Submitted via: ExactAudioCopyFreeDBPlugin 1.0
#
DISCID=850bb00c
DTITLE=Various Artist - Southern Shades of Blue
DYEAR=1995
DGENRE=Blues
TTITLE0=The Beat Daddys - Livin This Love
TTITLE1=Artie "Blues Boy" White - I´m Gonna Marry My Mother In Law
TTITLE2=Mike Griffin - Fifth Of Whiskey, Case Of The Blues
TTITLE3=Poornanny - Out Grindin´ The Grindin´ Man
TTITLE4=James Peterson - Don´t Let The Devil Ride
TTITLE5=Keri Leigh - Georgia Crawl
TTITLE6=McKinley Mitchell - You Know I´ve Tried
TTITLE7=The Beart Daddys - How Blue Must I Get
TTITLE8=Poornanny - Clean Out Your Dresser
TTITLE9=King Floyd - I Feel Like Dynamite
TTITLE10=Keri Leigh - New Thang
TTITLE11=Mike Griffin - Workin´ Is The Curse
EXTD=YEAR: 1995
EXTT0=
EXTT1=
EXTT2=
EXTT3=
EXTT4=
EXTT5=
EXTT6=
EXTT7=
EXTT8=
EXTT9=
EXTT10=
EXTT11=
PLAYORDER=
